<?xml version="1.0" encoding="UTF-8" standalone="no"?>
<!DOCTYPE svg PUBLIC "-//W3C//DTD SVG 1.1//EN" "http://www.w3.org/Graphics/SVG/1.1/DTD/svg11.dtd">
<svg xmlns="http://www.w3.org/2000/svg" version="1.1" viewBox="0.00 0.00 1024.00 1024.00">
<g stroke-width="2.00" fill="none" stroke-linecap="butt">
<path stroke="#0d67ad" vector-effect="non-scaling-stroke" d="
  M 514.17 297.81
  L 514.36 370.69"
/>
<path stroke="#0a83c7" vector-effect="non-scaling-stroke" d="
  M 514.36 370.69
  L 514.47 389.35
  A 0.44 0.43 12.6 0 1 513.85 389.74
  L 474.43 371.61
  A 1.38 1.37 -42.7 0 0 473.35 371.57
  C 444.92 382.07 415.25 390.10 385.88 395.72
  Q 373.48 398.10 363.87 399.32
  Q 358.31 400.03 351.25 400.11
  Q 348.86 400.13 350.93 401.33
  Q 393.28 425.78 436.12 447.63
  Q 463.65 461.68 501.01 476.37"
/>
<path stroke="#0d67ad" vector-effect="non-scaling-stroke" d="
  M 413.10 571.42
  Q 412.75 570.98 411.35 571.86
  Q 379.93 591.79 348.06 611.49"
/>
<path stroke="#0e519a" vector-effect="non-scaling-stroke" d="
  M 579.04 415.92
  L 514.36 370.69"
/>
<path stroke="#0d67ad" vector-effect="non-scaling-stroke" d="
  M 681.78 403.19
  Q 649.63 425.68 617.24 446.63
  Q 617.04 446.76 616.52 446.86"
/>
<path stroke="#0a83c7" vector-effect="non-scaling-stroke" d="
  M 681.85 610.29
  Q 680.90 610.72 680.51 610.49
  Q 598.24 560.78 515.81 511.27"
/>
<path stroke="#0a83c7" vector-effect="non-scaling-stroke" d="
  M 586.53 670.57
  L 515.55 626.46
  A 1.39 1.39 0.0 0 1 514.90 625.34
  Q 514.70 618.63 514.70 611.76
  Q 514.66 557.16 514.73 517.50
  Q 514.73 514.79 513.76 513.45"
/>
<path stroke="#0d67ad" vector-effect="non-scaling-stroke" d="
  M 514.95 715.13
  L 514.76 635.47
  A 3.31 3.30 -73.8 0 0 513.25 632.71
  L 450.00 591.67"
/>
</g>
<path fill="#0999d9" d="
  M 514.17 297.81
  L 514.36 370.69
  L 514.47 389.35
  A 0.44 0.43 12.6 0 1 513.85 389.74
  L 474.43 371.61
  A 1.38 1.37 -42.7 0 0 473.35 371.57
  C 444.92 382.07 415.25 390.10 385.88 395.72
  Q 373.48 398.10 363.87 399.32
  Q 358.31 400.03 351.25 400.11
  Q 348.86 400.13 350.93 401.33
  Q 393.28 425.78 436.12 447.63
  Q 463.65 461.68 501.01 476.37
  Q 489.96 486.64 481.17 496.17
  Q 449.39 530.61 413.10 571.42
  Q 412.75 570.98 411.35 571.86
  Q 379.93 591.79 348.06 611.49
  L 348.35 400.99
  A 1.86 1.84 74.4 0 1 349.23 399.41
  L 514.17 297.81
  Z"
/>
<path fill="#103580" d="
  M 579.04 415.92
  L 514.36 370.69
  L 514.17 297.81
  Q 514.98 297.82 515.41 298.08
  Q 546.50 317.34 577.74 336.96
  A 2.72 2.72 0.0 0 1 579.01 339.26
  L 579.04 415.92
  Z"
/>
<path fill="#103580" d="
  M 681.78 403.19
  Q 649.63 425.68 617.24 446.63
  Q 617.04 446.76 616.52 446.86
  L 616.78 445.85
  Q 616.89 445.42 616.89 444.97
  L 616.89 361.85
  A 0.64 0.63 16.0 0 1 617.86 361.32
  Q 648.56 380.42 680.07 400.18
  Q 682.32 401.59 681.78 403.19
  Z"
/>
<path fill="#0b6db4" d="
  M 579.04 415.92
  L 579.03 425.65
  A 2.48 2.48 0.0 0 1 577.87 427.75
  L 501.01 476.37
  Q 463.65 461.68 436.12 447.63
  Q 393.28 425.78 350.93 401.33
  Q 348.86 400.13 351.25 400.11
  Q 358.31 400.03 363.87 399.32
  Q 373.48 398.10 385.88 395.72
  C 415.25 390.10 444.92 382.07 473.35 371.57
  A 1.38 1.37 -42.7 0 1 474.43 371.61
  L 513.85 389.74
  A 0.44 0.43 12.6 0 0 514.47 389.35
  L 514.36 370.69
  L 579.04 415.92
  Z"
/>
<path fill="#0999d9" d="
  M 681.78 403.19
  L 681.85 610.29
  Q 680.90 610.72 680.51 610.49
  Q 598.24 560.78 515.81 511.27
  Q 519.06 508.71 523.01 506.25
  Q 570.04 476.97 616.52 446.86
  Q 617.04 446.76 617.24 446.63
  Q 649.63 425.68 681.78 403.19
  Z"
/>
<path fill="#0b6db4" d="
  M 515.81 511.27
  Q 598.24 560.78 680.51 610.49
  Q 680.90 610.72 681.85 610.29
  Q 681.81 611.62 681.07 612.07
  Q 633.30 641.61 586.53 670.57
  L 515.55 626.46
  A 1.39 1.39 0.0 0 1 514.90 625.34
  Q 514.70 618.63 514.70 611.76
  Q 514.66 557.16 514.73 517.50
  Q 514.73 514.79 513.76 513.45
  L 515.81 511.27
  Z"
/>
<path fill="#0999d9" d="
  M 513.76 513.45
  Q 514.73 514.79 514.73 517.50
  Q 514.66 557.16 514.70 611.76
  Q 514.70 618.63 514.90 625.34
  A 1.39 1.39 0.0 0 0 515.55 626.46
  L 586.53 670.57
  L 514.95 715.13
  L 514.76 635.47
  A 3.31 3.30 -73.8 0 0 513.25 632.71
  L 450.00 591.67
  Q 449.46 589.58 450.14 587.38
  Q 450.62 585.86 452.35 583.89
  Q 483.12 548.82 513.76 513.45
  Z"
/>
<path fill="#103580" d="
  M 413.10 571.42
  C 412.97 571.99 412.70 572.67 412.70 573.22
  Q 412.78 611.79 412.89 650.76
  Q 412.89 652.11 411.75 651.40
  L 348.06 611.49
  Q 379.93 591.79 411.35 571.86
  Q 412.75 570.98 413.10 571.42
  Z"
/>
<path fill="#103580" d="
  M 514.95 715.13
  Q 483.26 695.51 452.12 676.15
  C 449.68 674.63 450.01 673.73 450.00 670.78
  Q 449.88 631.87 450.00 591.67
  L 513.25 632.71
  A 3.31 3.30 -73.8 0 1 514.76 635.47
  L 514.95 715.13
  Z"
/>
</svg>
